<?xml version="1.0" encoding="utf-8"?>
<!-- Svg Vector Icons : http://www.onlinewebfonts.com/icon -->
<!DOCTYPE svg PUBLIC "-//W3C//DTD SVG 1.1//EN" "http://www.w3.org/Graphics/SVG/1.1/DTD/svg11.dtd">
<svg version="1.1" xmlns="http://www.w3.org/2000/svg" xmlns:xlink="http://www.w3.org/1999/xlink" x="0px" y="0px" viewBox="0 0 1000 1000" enable-background="new 0 0 1000 1000" xml:space="preserve">
<metadata> Svg Vector Icons : http://www.onlinewebfonts.com/icon </metadata>
<g><g transform="translate(0.000000,511.000000) scale(0.100000,-0.100000)"><path d="M4792,4563c-292.3-148.1-342.3-534.6-98.1-761.5l76.9-71.1l30.8-1659.6c17.3-913.5,30.8-1663.5,32.7-1665.4c1.9-1.9,76.9,15.4,171.2,38.5l167.3,40.4v213.5c0,115.4,13.5,846.2,28.8,1621.2l26.9,1409.6l84.6,82.7c163.5,157.7,196.2,394.2,78.9,580.8C5267,4595.7,5003.6,4668.8,4792,4563z"/><path d="M3322.8,3986.1c-146.1-36.5-305.8-111.5-663.5-309.6c-607.7-338.5-905.8-428.8-1909.6-584.6C194,3005.3,76.6,2963,103.6,2855.3c26.9-109.6,194.2-203.9,451.9-251.9c107.7-19.2,126.9-28.8,138.5-71.2c36.5-142.3,178.8-232.7,421.2-269.2c132.7-19.2,146.2-25,173.1-80.8c40.4-84.6,150-132.7,323.1-144.2c130.8-7.7,151.9-15.4,205.8-69.2c76.9-76.9,178.8-107.7,353.8-107.7c109.6,0,136.5-5.8,136.5-28.8c0-15.4,28.8-46.2,63.5-67.3c76.9-48.1,234.6-50,405.8-7.7c111.5,26.9,126.9,26.9,180.8,0c82.7-42.3,269.2-40.4,392.3,7.7c117.3,44.2,236.5,48.1,440.4,11.5c173.1-30.8,303.8-94.2,442.3-215.4c117.3-100,257.7-173.1,376.9-192.3l78.8-11.5l-9.6,428.9c-5.8,236.5-15.4,728.8-21.1,1094.2l-13.5,663.5l-134.6,92.3c-175,121.2-563.5,311.5-713.5,350C3651.6,4020.7,3470.9,4020.7,3322.8,3986.1z"/><path d="M6153.6,3970.7c-171.2-51.9-438.5-182.7-651.9-323.1l-155.8-101.9l-1.9-338.5c0-184.6-7.7-673.1-15.4-1086.5c-9.6-411.5-13.4-753.8-9.6-757.7c11.6-13.5,198.1,32.7,265.4,65.4c32.7,15.4,115.4,76.9,182.7,134.6c151.9,128.8,257.7,180.8,444.2,213.5c201.9,36.5,321.2,32.7,438.5-11.5c123.1-48.1,309.6-50,392.3-7.7c53.8,26.9,69.2,26.9,180.8,0c228.8-57.7,428.9-28.8,459.6,65.4c11.5,34.6,28.8,38.5,148.1,38.5c173.1,0,276.9,30.8,351.9,107.7c53.8,53.8,75,61.5,205.8,69.2c173.1,11.5,282.7,59.6,323.1,144.2c26.9,55.8,40.4,61.5,173.1,80.8c242.3,36.5,384.6,126.9,421.2,269.2c11.5,42.3,30.8,51.9,138.4,71.2c259.6,48.1,425,140.4,451.9,250c28.8,111.5-82.7,150-694.2,246.2C8219,3255.3,7947.8,3338,7340.1,3676.4c-163.5,92.3-353.9,192.3-421.2,221.2C6644,4022.6,6405.5,4045.7,6153.6,3970.7z"/><path d="M3576.6,1341.8c-221.2-51.9-344.2-115.4-457.7-240.4C2836.3,793.7,2942,386,3351.6,189.9c146.2-69.2,403.8-138.5,651.9-175l167.3-25l123.1,113.5c71.2,65.4,186.5,144.2,273.1,186.5c80.8,40.4,144.2,76.9,140.4,80.8c-1.9,3.8-180.8,32.7-394.2,65.4c-592.3,92.3-828.8,163.5-875,259.6c-17.3,42.3-15.4,55.8,15.4,90.4c65.4,73.1,134.6,92.3,225,59.6c113.5-38.5,442.3-21.2,617.3,34.6c132.7,42.3,242.3,123.1,242.3,178.8c0,86.5-203.8,213.5-432.7,273.1C3918.9,1380.3,3759.3,1382.2,3576.6,1341.8z"/><path d="M6015.1,1361.1c-234.6-40.4-494.2-165.4-538.5-257.7c-46.1-103.8,82.7-196.2,346.2-251.9c159.6-34.6,413.5-34.6,507.7-1.9c80.8,28.8,151.9,7.7,215.4-63.5c30.8-34.6,32.7-48.1,15.4-90.4c-46.2-100-275-165.4-928.8-267.3C4955.5,322.6,4701.6,245.7,4469,82.2c-363.5-259.6-415.4-738.4-121.2-1101.9l98.1-121.2l59.6,40.4c34.6,21.2,157.7,96.2,273.1,167.3c117.3,69.2,248.1,151.9,294.2,184.6l80.8,57.7v209.6c0,238.5,7.7,232.7-182.7,163.5l-115.4-42.3v-246.2c0-134.6-5.8-244.2-11.5-244.2c-7.7,0-51.9,42.3-100,94.2c-157.7,167.3-161.5,323.1-11.5,451.9c123.1,103.8,359.6,171.1,969.2,271.1c598.1,98.1,767.3,138.5,951.9,225c403.8,194.2,507.7,603.8,226.9,909.6c-117.3,128.8-238.5,190.4-475,240.4C6213.2,1382.2,6161.3,1384.1,6015.1,1361.1z"/><path d="M5470.9-198.6c-280.8-48.1-273.1-44.2-194.2-113.5c88.4-78.8,117.3-163.5,88.4-273.1c-32.7-125-192.3-265.4-517.3-457.7c-326.9-194.2-488.5-334.6-580.8-503.8c-61.5-113.4-65.4-132.7-65.4-303.8c0-167.3,5.8-194.2,61.5-307.7c34.6-69.2,105.8-175,159.6-234.6l98.1-109.6l215.4,169.2c119.2,94.2,251.9,203.8,296.2,244.2l82.7,75l13.5,217.3l15.4,217.3l78.8-67.3c144.2-123.1,155.8-248.1,40.4-392.3c-65.4-80.8-275-265.4-465.4-411.5c-228.8-173.1-315.4-300-330.8-480.8c-9.6-98.1-3.8-126.9,50-236.5c44.2-90.4,92.3-148.1,169.2-211.5c57.7-48.1,113.5-86.5,121.1-86.5c9.6,0,76.9,67.3,151.9,148.1l136.5,148.1v130.8c0,71.2-5.8,130.8-13.5,130.8c-5.8,0-50-21.1-94.2-48.1l-82.7-48.1l-5.8-128.8l-5.8-126.9l-53.8,78.8c-71.2,101.9-76.9,196.2-13.5,263.5c26.9,26.9,142.3,100,257.7,159.6c603.8,313.5,857.7,778.8,651.9,1198.1c-34.6,67.3-90.4,151.9-128.8,188.5l-65.4,63.5l-84.6-55.8c-44.2-30.8-182.7-115.4-303.8-188.5c-121.2-71.2-234.6-142.3-253.9-157.7c-26.9-25-30.8-57.7-21.1-251.9l11.5-223.1l-57.7,42.3c-76.9,55.8-159.6,176.9-171.2,257.7c-23.1,140.4,65.4,230.8,463.5,467.3c138.5,82.7,298.1,188.5,357.7,234.6c317.3,248.1,432.7,590.4,313.5,934.6C5759.3-142.8,5774.7-144.7,5470.9-198.6z"/><path d="M5284.3-2792.8l-148.1-90.4l42.3-40.4c57.7-57.7,50-155.8-17.3-250c-30.8-42.3-117.3-146.2-194.2-232.7c-167.3-186.5-219.2-280.8-221.2-403.8c0-109.6,40.4-196.1,117.3-251.9c53.8-36.5,57.7-50,63.5-167.3c3.8-96.2,13.5-132.7,40.4-148.1c63.5-40.4,100,7.7,105.8,148.1c5.8,117.3,9.6,130.8,63.5,167.3c76.9,55.8,113.5,134.6,113.5,248.1c0,94.2-48.1,232.7-82.7,232.7c-28.8,0-182.7-113.5-225-167.3c-38.5-48.1-40.4-69.2-30.8-188.5l11.5-134.6l-38.5,46.2c-86.5,101.9-73.1,236.5,38.5,348.1c40.4,40.4,140.4,117.3,221.2,173.1c290.4,196.2,382.7,328.8,382.7,548.1c0,126.9-42.3,263.5-80.8,257.7C5438.2-2700.5,5365.1-2742.8,5284.3-2792.8z M5144-3773.6c15.4-30.8,28.8-80.8,28.8-109.6c0-53.8-71.2-192.3-88.5-173.1c-11.5,9.6,11.5,340.4,23.1,340.4C5111.3-3715.9,5126.6-3740.9,5144-3773.6z"/></g></g>
</svg>